<svg xmlns="http://www.w3.org/2000/svg" viewBox="0 0 101.68 101.68"><defs><style>.cls-1{fill:#b9a563;}.cls-2{fill:none;stroke:#b9a563;stroke-miterlimit:10;stroke-width:2px;}.cls-3{fill:#fff;}</style></defs><title>logo-miniFichier 7</title><g id="Calque_2" data-name="Calque 2"><g id="Calque_1-2" data-name="Calque 1"><path class="cls-1" d="M50.84,3A47.84,47.84,0,1,1,3,50.84,47.89,47.89,0,0,1,50.84,3m0-3a50.84,50.84,0,1,0,50.84,50.84A50.84,50.84,0,0,0,50.84,0Z"/><line class="cls-2" x1="75.71" y1="25.73" x2="25.97" y2="75.46"/><path class="cls-3" d="M44.17,44.05H39.54l-1.34-4.2H31.5l-1.33,4.2h-4.6l6.86-18.86h5Zm-6.94-7.46-2-6.33a8.22,8.22,0,0,1-.31-1.7h-.11a6.73,6.73,0,0,1-.33,1.64L32.4,36.59Z"/><path class="cls-3" d="M66.67,76.89a9.34,9.34,0,0,1-7-2.8,10.06,10.06,0,0,1-2.72-7.32,10.78,10.78,0,0,1,2.76-7.7,9.52,9.52,0,0,1,7.31-3,9.11,9.11,0,0,1,7,2.82,10.38,10.38,0,0,1,2.66,7.42A10.63,10.63,0,0,1,73.84,74,9.43,9.43,0,0,1,66.67,76.89ZM66.86,60a4.54,4.54,0,0,0-3.78,1.78,7.48,7.48,0,0,0-1.4,4.73,7.33,7.33,0,0,0,1.4,4.72A4.48,4.48,0,0,0,66.75,73a4.54,4.54,0,0,0,3.71-1.69,7.22,7.22,0,0,0,1.37-4.69,7.82,7.82,0,0,0-1.33-4.86A4.34,4.34,0,0,0,66.86,60Z"/></g></g></svg>