<?xml version="1.0" standalone="no"?>
<!DOCTYPE svg PUBLIC "-//W3C//DTD SVG 20010904//EN"
 "http://www.w3.org/TR/2001/REC-SVG-20010904/DTD/svg10.dtd">
<svg version="1.0" xmlns="http://www.w3.org/2000/svg"
 width="700.000000pt" height="700.000000pt" viewBox="0 0 700.000000 700.000000"
 preserveAspectRatio="xMidYMid meet">
<metadata>
Created by potrace 1.11, written by Peter Selinger 2001-2013
</metadata>
<g transform="translate(0.000000,700.000000) scale(0.100000,-0.100000)"
fill="#000000" stroke="none">
<path d="M3278 6995 c-2 -1 -41 -6 -87 -9 -126 -10 -140 -12 -356 -51 -73 -12
-96 -18 -190 -41 -414 -105 -832 -298 -1177 -545 -633 -454 -1079 -1073 -1316
-1829 -37 -118 -89 -343 -106 -455 -2 -16 -8 -50 -12 -75 -7 -48 -8 -59 -21
-190 -15 -159 -8 -604 11 -707 2 -10 7 -43 10 -74 4 -31 9 -67 11 -80 3 -13 7
-37 9 -54 11 -75 62 -283 103 -415 105 -340 237 -616 439 -920 474 -713 1235
-1247 2061 -1446 112 -27 117 -28 203 -44 30 -6 66 -12 79 -15 14 -2 47 -7 75
-11 28 -3 62 -8 76 -10 184 -27 638 -25 844 3 37 5 257 43 331 58 132 26 462
131 583 186 34 16 65 29 67 29 17 0 274 133 382 198 184 111 401 269 518 377
361 332 611 657 810 1054 135 269 249 593 301 856 14 74 44 250 50 300 4 33 8
71 10 85 8 62 11 534 3 612 -14 145 -22 210 -39 308 -6 36 -13 79 -16 95 -22
126 -148 553 -173 590 -4 6 -16 33 -26 60 -10 28 -42 100 -70 160 -234 497
-606 957 -1040 1287 -72 54 -234 168 -240 168 -2 0 -35 20 -72 44 -279 179
-729 358 -1088 431 -44 9 -89 19 -100 21 -11 2 -38 6 -60 9 -22 3 -51 7 -65
10 -13 2 -54 7 -90 11 -36 3 -78 8 -95 11 -32 5 -531 13 -537 8z m412 -209
c69 -3 136 -8 150 -10 14 -3 50 -7 80 -10 30 -4 65 -8 76 -10 12 -3 37 -7 55
-10 33 -5 109 -20 159 -31 14 -3 34 -7 45 -9 132 -29 399 -117 546 -182 300
-131 605 -320 834 -517 528 -453 902 -1061 1063 -1727 31 -128 35 -148 53
-260 5 -36 11 -72 14 -80 2 -8 7 -51 10 -95 4 -44 8 -96 11 -115 5 -45 5 -404
0 -450 -2 -19 -7 -69 -10 -110 -10 -111 -34 -255 -71 -430 -6 -27 -34 -131
-44 -163 -103 -321 -179 -498 -319 -737 -82 -141 -214 -332 -292 -424 -142
-168 -294 -320 -465 -465 -199 -170 -558 -383 -830 -494 -99 -41 -307 -114
-345 -122 -8 -2 -69 -17 -135 -33 -135 -34 -333 -69 -457 -80 -175 -15 -644
-7 -750 13 -11 3 -39 6 -62 9 -159 19 -562 125 -671 176 -11 5 -60 25 -108 45
-290 117 -606 311 -867 532 -59 50 -292 282 -351 348 -99 113 -281 368 -343
480 -16 28 -32 55 -36 60 -5 6 -36 65 -69 133 -115 230 -198 455 -257 693 -33
134 -35 141 -69 359 -4 25 -13 113 -21 200 -5 62 -5 405 1 460 2 25 7 77 11
115 3 39 8 77 9 86 2 9 6 40 10 69 4 29 9 62 11 74 3 12 11 53 19 91 21 104
22 107 45 192 56 206 135 411 235 613 71 144 119 225 216 370 119 176 239 320
404 485 271 272 546 468 897 642 60 29 110 53 114 53 3 0 24 8 47 19 155 70
480 168 647 195 19 3 44 7 55 10 112 22 226 34 390 42 77 4 141 8 143 9 1 1
24 1 50 -1 26 -1 103 -5 172 -8z"/>
<path d="M2232 5256 c-5 -6 -37 -90 -71 -186 -34 -96 -75 -209 -91 -250 -15
-41 -58 -158 -95 -260 -36 -102 -70 -194 -75 -205 -4 -11 -25 -67 -45 -125
-21 -58 -50 -140 -66 -182 l-28 -78 158 0 158 0 46 143 47 142 230 1 230 0 42
-131 c23 -71 42 -133 42 -137 2 -18 27 -21 168 -19 84 1 153 3 155 4 1 2 -64
185 -143 407 -80 223 -161 448 -179 500 -19 52 -53 147 -76 210 -22 63 -43
125 -46 138 -3 12 -10 26 -17 30 -18 12 -335 10 -344 -2z m189 -314 c9 -37 41
-146 72 -242 30 -96 58 -185 62 -197 l6 -22 -164 1 -165 0 8 27 c4 14 29 91
55 171 26 80 58 178 71 218 13 40 24 82 24 92 0 41 16 17 31 -48z"/>
<path d="M3447 3562 l-1707 -1707 49 -49 49 -48 1711 1711 1712 1711 -44 45
c-25 25 -49 45 -53 45 -5 0 -777 -768 -1717 -1708z"/>
<path d="M4498 3135 c-1 -2 -19 -6 -40 -9 -228 -36 -425 -222 -508 -481 -32
-98 -38 -328 -11 -431 60 -232 210 -400 426 -474 75 -26 130 -33 245 -32 294
2 534 178 630 461 30 91 35 130 34 281 -1 148 -14 215 -63 322 -84 182 -238
308 -429 352 -54 12 -273 21 -284 11z m233 -292 c67 -30 117 -79 154 -153 104
-206 71 -505 -69 -633 -87 -80 -227 -104 -342 -59 -141 56 -228 219 -227 427
0 225 105 393 270 435 57 14 162 6 214 -17z"/>
</g>
</svg>
